<?xml version="1.0" encoding="UTF-8"?>
<!DOCTYPE svg PUBLIC "-//W3C//DTD SVG 1.1//EN" "http://www.w3.org/Graphics/SVG/1.1/DTD/svg11.dtd">
<!-- Creator: CorelDRAW -->
<svg xmlns="http://www.w3.org/2000/svg" xml:space="preserve" width="2048px" height="2048px" style="shape-rendering:geometricPrecision; text-rendering:geometricPrecision; image-rendering:optimizeQuality; fill-rule:evenodd; clip-rule:evenodd"
viewBox="0 0 2048 2048"
 xmlns:xlink="http://www.w3.org/1999/xlink">
 <defs>
  <style type="text/css">
   <![CDATA[
    .fil5 {fill:none}
    .fil2 {fill:#1E88E5}
    .fil4 {fill:#546E7A}
    .fil3 {fill:#9CCC65}
    .fil1 {fill:#D32F2F}
    .fil0 {fill:#F57C00}
   ]]>
  </style>
 </defs>
 <g id="Layer_x0020_1">
  <metadata id="CorelCorpID_0Corel-Layer"/>
  <g id="_356341504">
   <path id="_356342056" class="fil0" d="M1024 255.999c-83.7816,0 -145.518,150.669 -167.346,213.703 -27.6248,79.7658 -45.6579,164.702 -57.8764,248.129 -14.8122,101.123 -21.3945,203.995 -21.3945,306.169 0,102.174 6.58229,205.047 21.3945,306.169 12.2185,83.426 30.2516,168.363 57.8764,248.129 21.828,63.0343 83.5642,213.703 167.346,213.703 83.7804,0 145.515,-150.669 167.345,-213.703 27.6236,-79.7658 45.6567,-164.702 57.8764,-248.129 14.811,-101.123 21.3933,-203.995 21.3933,-306.169 0,-102.174 -6.58229,-205.047 -21.3933,-306.169 -12.2197,-83.426 -30.2528,-168.363 -57.8764,-248.129 -21.8292,-63.0343 -83.5642,-213.703 -167.345,-213.703zm-0.00236221 98.6493c37.5366,0 60.0024,37.8685 73.1859,68.0067 19.1977,43.8803 30.9213,96.6072 39.613,143.582 12.5811,67.9867 20.3811,137.529 25.7729,206.43 6.53859,83.543 9.39331,167.542 9.39331,251.333 0,83.791 -2.85473,167.79 -9.39331,251.333 -5.39174,68.9008 -13.1917,138.443 -25.7729,206.43 -8.69174,46.9748 -20.4154,99.7017 -39.613,143.582 -13.1835,30.1382 -35.6492,68.0067 -73.1859,68.0067 -37.5366,0 -60.0024,-37.8685 -73.1859,-68.0067 -19.1977,-43.8803 -30.9213,-96.6072 -39.613,-143.582 -12.5811,-67.9867 -20.3811,-137.529 -25.7729,-206.43 -6.53859,-83.543 -9.39331,-167.542 -9.39331,-251.333 0,-83.791 2.85473,-167.79 9.39331,-251.333 5.39174,-68.9008 13.1917,-138.443 25.7729,-206.43 8.69174,-46.9748 20.4154,-99.7017 39.613,-143.582 13.1835,-30.1382 35.6492,-68.0067 73.1859,-68.0067z"/>
   <path id="_356341984" class="fil1" d="M1567.06 480.943c-59.2453,-59.243 -209.436,3.6437 -269.445,32.7803 -75.9379,36.8693 -148.745,84.176 -216.379,134.529 -81.9768,61.03 -159.375,129.119 -231.623,201.364 -72.2445,72.2481 -140.334,149.646 -201.364,231.623 -50.3528,67.6347 -97.6595,140.441 -134.529,216.379 -29.1366,60.0095 -92.0233,210.2 -32.7803,269.445 59.243,59.2394 209.436,-3.64725 269.442,-32.7827 75.939,-36.8705 148.746,-84.176 216.38,-134.529 81.9757,-61.0311 159.373,-129.119 231.621,-201.365 72.2457,-72.2481 140.334,-149.646 201.365,-231.621 50.3528,-67.6347 97.6583,-140.441 134.529,-216.38 29.1355,-60.006 92.0221,-210.199 32.7827,-269.442zm-69.7607 69.7548c26.5441,26.5406 15.6532,69.2044 3.66496,99.8375 -17.4543,44.5996 -46.4469,90.1784 -73.519,129.539 -39.176,56.9682 -82.8355,111.658 -127.745,164.192 -54.4477,63.6957 -111.826,125.112 -171.078,184.36 -59.2477,59.2524 -120.664,116.63 -184.36,171.078 -52.5343,44.9091 -107.224,88.5686 -164.192,127.745 -39.3603,27.0721 -84.939,56.0646 -129.539,73.519 -30.6331,11.9882 -73.2969,22.8792 -99.8375,-3.66496 -26.5441,-26.5406 -15.6532,-69.2044 -3.66496,-99.8375 17.4543,-44.5996 46.4469,-90.1784 73.519,-129.539 39.176,-56.9682 82.8355,-111.658 127.745,-164.192 54.4477,-63.6957 111.826,-125.112 171.078,-184.36 59.2477,-59.2524 120.664,-116.63 184.36,-171.078 52.5343,-44.9091 107.224,-88.5686 164.192,-127.745 39.3603,-27.0721 84.939,-56.0646 129.539,-73.519 30.6331,-11.9882 73.2969,-22.8792 99.8375,3.66496z"/>
   <path id="_356341840" class="fil2" d="M1792 1024c0,-83.7816 -150.669,-145.518 -213.703,-167.346 -79.7658,-27.6248 -164.702,-45.6579 -248.129,-57.8764 -101.123,-14.8122 -203.995,-21.3945 -306.169,-21.3945 -102.174,0 -205.047,6.58229 -306.169,21.3945 -83.426,12.2185 -168.363,30.2516 -248.129,57.8764 -63.0343,21.828 -213.703,83.5642 -213.703,167.346 0,83.7804 150.669,145.515 213.703,167.345 79.7658,27.6236 164.702,45.6567 248.129,57.8764 101.123,14.811 203.995,21.3933 306.169,21.3933 102.174,0 205.047,-6.58229 306.169,-21.3933 83.426,-12.2197 168.363,-30.2528 248.129,-57.8764 63.0343,-21.8292 213.703,-83.5642 213.703,-167.345zm-98.6457 -0.00236221c0,37.5366 -37.8697,60.0024 -68.0079,73.1859 -43.8803,19.1977 -96.6095,30.9213 -143.584,39.613 -67.9867,12.5811 -137.529,20.3811 -206.43,25.7729 -83.543,6.53859 -167.542,9.39331 -251.333,9.39331 -83.791,0 -167.79,-2.85473 -251.333,-9.39331 -68.9008,-5.39174 -138.443,-13.1917 -206.43,-25.7729 -46.9748,-8.69174 -99.704,-20.4154 -143.584,-39.613 -30.1382,-13.1835 -68.0079,-35.6492 -68.0079,-73.1859 0,-37.5366 37.8697,-60.0024 68.0079,-73.1859 43.8803,-19.1977 96.6095,-30.9213 143.584,-39.613 67.9867,-12.5811 137.529,-20.3811 206.43,-25.7729 83.543,-6.53859 167.542,-9.39331 251.333,-9.39331 83.791,0 167.79,2.85473 251.333,9.39331 68.9008,5.39174 138.443,13.1917 206.43,25.7729 46.9748,8.69174 99.704,20.4154 143.584,39.613 30.1382,13.1835 68.0079,35.6492 68.0079,73.1859z"/>
   <path id="_356341912" class="fil3" d="M1567.06 1567.06c59.243,-59.2453 -3.6437,-209.436 -32.7803,-269.445 -36.8693,-75.9379 -84.176,-148.745 -134.529,-216.379 -61.03,-81.9768 -129.119,-159.375 -201.364,-231.623 -72.2481,-72.2445 -149.646,-140.334 -231.623,-201.364 -67.6347,-50.3528 -140.441,-97.6595 -216.379,-134.529 -60.0095,-29.1366 -210.2,-92.0233 -269.445,-32.7803 -59.2394,59.243 3.64725,209.436 32.7827,269.442 36.8705,75.939 84.176,148.746 134.529,216.38 61.0311,81.9757 129.119,159.373 201.365,231.621 72.2481,72.2457 149.646,140.334 231.621,201.365 67.6347,50.3528 140.441,97.6583 216.38,134.529 60.006,29.1355 210.199,92.0221 269.442,32.7827zm-69.7548 -69.7607c-26.5406,26.5441 -69.2044,15.6532 -99.8375,3.66496 -44.5996,-17.4543 -90.1784,-46.4469 -129.539,-73.519 -56.9682,-39.176 -111.658,-82.8355 -164.192,-127.745 -63.6957,-54.4477 -125.112,-111.826 -184.36,-171.078 -59.2524,-59.2477 -116.63,-120.664 -171.078,-184.36 -44.9091,-52.5343 -88.5686,-107.224 -127.745,-164.192 -27.0721,-39.3603 -56.0646,-84.939 -73.519,-129.539 -11.9882,-30.6331 -22.8792,-73.2969 3.66496,-99.8375 26.5406,-26.5441 69.2044,-15.6532 99.8375,-3.66496 44.5996,17.4543 90.1784,46.4469 129.539,73.519 56.9682,39.176 111.658,82.8355 164.192,127.745 63.6957,54.4477 125.112,111.826 184.36,171.078 59.2524,59.2477 116.63,120.664 171.078,184.36 44.9091,52.5343 88.5686,107.224 127.745,164.192 27.0721,39.3603 56.0646,84.939 73.519,129.539 11.9882,30.6331 22.8792,73.2969 -3.66496,99.8375z"/>
   <circle id="_356341264" class="fil4" cx="1024" cy="1024" r="92.8077"/>
  </g>
 </g>
 <rect class="fil5" width="2048" height="2048"/>
</svg>
