<?xml version="1.0" encoding="utf-8"?><!-- Uploaded to: SVG Repo, www.svgrepo.com, Generator: SVG Repo Mixer Tools -->
<svg fill="#000000" width="800px" height="800px" viewBox="0 0 24 24" id="chemistry-6" data-name="Flat Color" xmlns="http://www.w3.org/2000/svg" class="icon flat-color"><path id="primary" d="M21,6H20V3a1,1,0,0,0-2,0V6H11a1,1,0,0,0,0,2h7V20H3a1,1,0,0,0,0,2H18a2,2,0,0,0,2-2V8h1a1,1,0,0,0,0-2Z" style="fill: rgb(0, 0, 0);"></path><path id="secondary" d="M14.76,15.05,12,9.93V5a1,1,0,0,0,0-2H6A1,1,0,0,0,6,5V9.93L3.24,15.05A2,2,0,0,0,5,18h8a2,2,0,0,0,1.76-2.95Z" style="fill: rgb(44, 169, 188);"></path></svg>