<?xml version="1.0" encoding="utf-8"?>
<!-- Generator: Adobe Illustrator 24.3.0, SVG Export Plug-In . SVG Version: 6.00 Build 0)  -->
<svg version="1.1" id="Layer_1" xmlns="http://www.w3.org/2000/svg" xmlns:xlink="http://www.w3.org/1999/xlink" x="0px" y="0px"
	 viewBox="0 0 180 180" enable-background="new 0 0 180 180" xml:space="preserve">
<g>
	<path id="XMLID_800_" fill="#FFDB76" d="M153.612,90c0,35.132-28.481,63.612-63.613,63.612c-35.132,0-63.611-28.48-63.611-63.612
		c0-35.134,28.48-63.612,63.611-63.612C125.132,26.388,153.612,54.866,153.612,90z"/>
	<g id="XMLID_721_">
		<g id="XMLID_754_">
			<rect id="XMLID_795_" x="74.265" y="68.286" fill="#FFFFFF" width="52.476" height="52.477"/>
			<g id="XMLID_766_">
				<g id="XMLID_781_">
					
						<rect id="XMLID_794_" x="100.135" y="94.156" transform="matrix(-1.836970e-16 1 -1 -1.836970e-16 216.6992 -27.6514)" fill="#D1D1D1" width="44.081" height="0.735"/>
					
						<rect id="XMLID_793_" x="96.523" y="94.157" transform="matrix(-1.836970e-16 1 -1 -1.836970e-16 213.0874 -24.0396)" fill="#D1D1D1" width="44.081" height="0.734"/>
					
						<rect id="XMLID_792_" x="92.91" y="94.157" transform="matrix(-1.836970e-16 1 -1 -1.836970e-16 209.4741 -20.4263)" fill="#D1D1D1" width="44.081" height="0.734"/>
					
						<rect id="XMLID_791_" x="89.298" y="94.157" transform="matrix(-1.836970e-16 1 -1 -1.836970e-16 205.8628 -16.815)" fill="#D1D1D1" width="44.081" height="0.734"/>
					
						<rect id="XMLID_790_" x="85.686" y="94.157" transform="matrix(-1.836970e-16 1 -1 -1.836970e-16 202.2505 -13.2027)" fill="#D1D1D1" width="44.081" height="0.734"/>
					
						<rect id="XMLID_789_" x="82.074" y="94.157" transform="matrix(-1.836970e-16 1 -1 -1.836970e-16 198.6382 -9.5904)" fill="#D1D1D1" width="44.081" height="0.734"/>
					
						<rect id="XMLID_788_" x="74.85" y="94.157" transform="matrix(-1.836970e-16 1 -1 -1.836970e-16 191.4145 -2.3667)" fill="#D1D1D1" width="44.081" height="0.734"/>
					
						<rect id="XMLID_787_" x="78.462" y="94.156" transform="matrix(-1.836970e-16 1 -1 -1.836970e-16 195.0264 -5.9785)" fill="#D1D1D1" width="44.081" height="0.735"/>
					
						<rect id="XMLID_786_" x="71.238" y="94.157" transform="matrix(-1.836970e-16 1 -1 -1.836970e-16 187.8022 1.2456)" fill="#D1D1D1" width="44.081" height="0.734"/>
					
						<rect id="XMLID_785_" x="67.626" y="94.157" transform="matrix(-1.836970e-16 1 -1 -1.836970e-16 184.1909 4.8569)" fill="#D1D1D1" width="44.081" height="0.734"/>
					
						<rect id="XMLID_784_" x="64.013" y="94.157" transform="matrix(-1.836970e-16 1 -1 -1.836970e-16 180.5776 8.4702)" fill="#D1D1D1" width="44.081" height="0.734"/>
					
						<rect id="XMLID_783_" x="60.401" y="94.157" transform="matrix(-1.836970e-16 1 -1 -1.836970e-16 176.9658 12.082)" fill="#D1D1D1" width="44.081" height="0.733"/>
					
						<rect id="XMLID_782_" x="56.789" y="94.156" transform="matrix(-1.836970e-16 1 -1 -1.836970e-16 173.3535 15.6943)" fill="#D1D1D1" width="44.081" height="0.735"/>
				</g>
				<g id="XMLID_767_">
					
						<rect id="XMLID_780_" x="78.462" y="115.829" transform="matrix(-1 -1.224647e-16 1.224647e-16 -1 201.0049 232.3936)" fill="#D1D1D1" width="44.081" height="0.735"/>
					
						<rect id="XMLID_779_" x="78.462" y="112.218" transform="matrix(-1 -1.224647e-16 1.224647e-16 -1 201.0049 225.1699)" fill="#D1D1D1" width="44.081" height="0.734"/>
					
						<rect id="XMLID_778_" x="78.462" y="108.604" transform="matrix(-1 -1.224647e-16 1.224647e-16 -1 201.0049 217.9453)" fill="#D1D1D1" width="44.081" height="0.736"/>
					
						<rect id="XMLID_777_" x="78.462" y="104.993" transform="matrix(-1 -1.224647e-16 1.224647e-16 -1 201.0049 210.7217)" fill="#D1D1D1" width="44.081" height="0.735"/>
					
						<rect id="XMLID_776_" x="78.462" y="101.382" transform="matrix(-1 -1.224647e-16 1.224647e-16 -1 201.0049 203.4981)" fill="#D1D1D1" width="44.081" height="0.734"/>
					
						<rect id="XMLID_775_" x="78.462" y="97.769" transform="matrix(-1 -1.224647e-16 1.224647e-16 -1 201.0049 196.2725)" fill="#D1D1D1" width="44.081" height="0.735"/>
					
						<rect id="XMLID_774_" x="78.462" y="90.546" transform="matrix(-1 -1.224647e-16 1.224647e-16 -1 201.0049 181.8242)" fill="#D1D1D1" width="44.081" height="0.733"/>
					
						<rect id="XMLID_773_" x="78.462" y="94.157" transform="matrix(-1 -1.224647e-16 1.224647e-16 -1 201.0049 189.0489)" fill="#D1D1D1" width="44.081" height="0.734"/>
					
						<rect id="XMLID_772_" x="78.462" y="86.932" transform="matrix(-1 -1.224647e-16 1.224647e-16 -1 201.0049 174.5986)" fill="#D1D1D1" width="44.081" height="0.735"/>
					
						<rect id="XMLID_771_" x="78.462" y="83.32" transform="matrix(-1 -1.224647e-16 1.224647e-16 -1 201.0049 167.376)" fill="#D1D1D1" width="44.081" height="0.735"/>
					
						<rect id="XMLID_770_" x="78.462" y="79.709" transform="matrix(-1 -1.224647e-16 1.224647e-16 -1 201.0049 160.1513)" fill="#D1D1D1" width="44.081" height="0.733"/>
					
						<rect id="XMLID_769_" x="78.462" y="76.097" transform="matrix(-1 -1.224647e-16 1.224647e-16 -1 201.0049 152.9277)" fill="#D1D1D1" width="44.081" height="0.734"/>
					
						<rect id="XMLID_768_" x="78.462" y="72.483" transform="matrix(-1 -1.224647e-16 1.224647e-16 -1 201.0049 145.7031)" fill="#D1D1D1" width="44.081" height="0.736"/>
				</g>
			</g>
			<g id="XMLID_763_">
				<polygon fill="#ADEBF6" points="112.212,109.54 108.2,109.54 108.2,95.092 101.376,95.092 101.376,102.315 94.546,102.315 
					87.173,109.382 86.388,108.563 94.091,101.182 100.241,101.182 100.241,93.958 109.335,93.958 109.335,108.405 111.079,108.405 
					111.079,87.3 112.212,87.3 				"/>
			</g>
			<path id="XMLID_762_" fill="#333333" d="M88.085,108.974c0,0.836-0.678,1.514-1.516,1.514c-0.836,0-1.514-0.678-1.514-1.514
				c0-0.838,0.678-1.516,1.514-1.516C87.407,107.458,88.085,108.136,88.085,108.974z"/>
			<path id="XMLID_761_" fill="#333333" d="M95.94,101.749c0,0.836-0.678,1.514-1.515,1.514c-0.837,0-1.515-0.678-1.515-1.514
				c0-0.837,0.678-1.516,1.515-1.516C95.263,100.233,95.94,100.912,95.94,101.749z"/>
			<path id="XMLID_760_" fill="#333333" d="M102.228,101.749c0,0.836-0.678,1.514-1.516,1.514c-0.836,0-1.515-0.678-1.515-1.514
				c0-0.837,0.679-1.516,1.515-1.516C101.55,100.233,102.228,100.912,102.228,101.749z"/>
			<path id="XMLID_759_" fill="#333333" d="M102.228,94.524c0,0.836-0.678,1.515-1.516,1.515c-0.836,0-1.515-0.679-1.515-1.515
				c0-0.838,0.679-1.515,1.515-1.515C101.55,93.01,102.228,93.687,102.228,94.524z"/>
			<path id="XMLID_758_" fill="#333333" d="M110.099,94.524c0,0.836-0.678,1.515-1.516,1.515c-0.836,0-1.514-0.679-1.514-1.515
				c0-0.838,0.678-1.515,1.514-1.515C109.421,93.01,110.099,93.687,110.099,94.524z"/>
			<path id="XMLID_757_" fill="#333333" d="M110.099,108.974c0,0.836-0.678,1.514-1.516,1.514c-0.836,0-1.514-0.678-1.514-1.514
				c0-0.838,0.678-1.516,1.514-1.516C109.421,107.458,110.099,108.136,110.099,108.974z"/>
			<path id="XMLID_756_" fill="#333333" d="M113.423,108.974c0,0.836-0.68,1.514-1.516,1.514c-0.836,0-1.516-0.678-1.516-1.514
				c0-0.838,0.68-1.516,1.516-1.516C112.743,107.458,113.423,108.136,113.423,108.974z"/>
			<path id="XMLID_755_" fill="#333333" d="M113.423,87.3c0,0.838-0.68,1.515-1.516,1.515c-0.836,0-1.516-0.677-1.516-1.515
				c0-0.836,0.68-1.516,1.516-1.516C112.743,85.784,113.423,86.464,113.423,87.3z"/>
		</g>
		<g id="XMLID_746_">
			<polygon id="XMLID_753_" fill-rule="evenodd" clip-rule="evenodd" fill="#FF916E" points="103.849,123.462 129.895,97.643 
				133.685,101.408 107.638,127.228 			"/>
			<polygon id="XMLID_752_" fill-rule="evenodd" clip-rule="evenodd" fill="#DD5A3C" points="105.069,124.675 131.114,98.854 
				132.464,100.196 106.419,126.017 			"/>
			<g id="XMLID_747_">
				<path id="XMLID_749_" fill-rule="evenodd" clip-rule="evenodd" fill="#FFFFFF" d="M102.708,128.399c0,0,4.869-1.109,4.93-1.17
					l0,0l0,0l0,0c0.178-0.18,0.034-0.61-0.32-0.963c-0.327-0.324-0.709-0.457-0.907-0.34c0.116-0.199-0.019-0.58-0.346-0.905
					c-0.326-0.323-0.708-0.456-0.907-0.339c0.117-0.2-0.017-0.581-0.345-0.906c-0.354-0.352-0.786-0.493-0.964-0.314
					C103.788,123.522,102.708,128.399,102.708,128.399z"/>
				<polygon id="XMLID_748_" fill-rule="evenodd" clip-rule="evenodd" fill="#333333" points="105.062,127.841 103.253,126.042 
					102.708,128.399 				"/>
			</g>
		</g>
		<g id="XMLID_731_">
			<path id="XMLID_740_" fill="#FF916E" d="M102.213,72.694l-0.003-8.826l-4.18,0.002c-0.628-3.393-1.961-6.533-3.842-9.271
				l2.955-2.959l-6.242-6.243l-2.957,2.96c-2.152-1.479-4.564-2.62-7.148-3.343c-0.667-0.189-1.352-0.35-2.041-0.479
				c-0.026-0.007-0.06-0.009-0.086-0.015l0.008-4.186l-8.827,0.002v4.186c-0.89,0.164-1.765,0.38-2.617,0.637
				c-2.401,0.727-4.64,1.812-6.656,3.205l-2.962-2.956l-6.234,6.238l2.956,2.956c-1.881,2.736-3.212,5.881-3.839,9.273l-4.182,0.002
				l0.002,8.827l4.182-0.003c0.627,3.392,1.954,6.537,3.841,9.274l-2.956,2.954l6.237,6.242l2.964-2.961
				c2.736,1.887,5.879,3.217,9.273,3.84v4.186l8.82-0.004v-4.18c0.896-0.168,1.77-0.377,2.621-0.636
				c2.396-0.727,4.635-1.817,6.652-3.206l2.96,2.957l6.237-6.244l-2.957-2.955c1.881-2.74,3.212-5.881,3.84-9.273L102.213,72.694z
				 M74.265,86.698c-10.17,0-18.414-8.242-18.414-18.412c0-10.168,8.244-18.412,18.414-18.412c10.167,0,18.41,8.244,18.41,18.412
				C92.675,78.456,84.432,86.698,74.265,86.698z"/>
			<rect id="XMLID_739_" x="70.958" y="96.237" fill="#F2F2F2" width="6.611" height="14.881"/>
			<rect id="XMLID_738_" x="70.958" y="96.237" fill="#D1D1D1" width="6.611" height="2.81"/>
			<circle id="XMLID_735_" opacity="0.3" fill="#FFE5B0" cx="74.263" cy="68.286" r="18.412"/>
			<path id="XMLID_734_" fill="#333333" d="M69.698,110.907v24.979c0,2.079,1.701,3.779,3.779,3.779h1.573
				c2.079,0,3.778-1.7,3.778-3.779v-24.979H69.698z"/>
		</g>
	</g>
</g>
</svg>
