<?xml version="1.0" encoding="UTF-8"?>
<!DOCTYPE svg PUBLIC "-//W3C//DTD SVG 1.1//EN" "http://www.w3.org/Graphics/SVG/1.1/DTD/svg11.dtd">
<!-- Creator: CorelDRAW -->
<svg xmlns="http://www.w3.org/2000/svg" xml:space="preserve" width="2048px" height="2048px" style="shape-rendering:geometricPrecision; text-rendering:geometricPrecision; image-rendering:optimizeQuality; fill-rule:evenodd; clip-rule:evenodd"
viewBox="0 0 2048 2048"
 xmlns:xlink="http://www.w3.org/1999/xlink">
 <defs>
  <style type="text/css">
   <![CDATA[
    .fil0 {fill:none}
    .fil1 {fill:#212121;fill-rule:nonzero}
   ]]>
  </style>
 </defs>
 <g id="Layer_x0020_1">
  <metadata id="CorelCorpID_0Corel-Layer"/>
  <rect class="fil0" width="2048" height="2048"/>
  <g id="_445077744">
   <rect id="_445075656" class="fil0" x="255.996" y="255.996" width="1536" height="1536"/>
   <g>
    <path id="_445085112" class="fil1" d="M1551.33 1066.08l181.514 0c16.2095,0 30.965,6.64489 41.6811,17.3362 10.7799,10.7622 17.4744,25.5544 17.4744,41.7638l0 497.899c0,16.2106 -6.69922,30.9981 -17.4768,41.7591 -10.7185,10.6961 -25.4776,17.341 -41.6788,17.341l-181.514 0c-16.2,0 -30.9626,-6.64016 -41.6823,-17.3386 -10.7787,-10.7587 -17.4732,-25.5414 -17.4732,-41.7614l0 -497.899c0,-16.2189 6.69095,-31.0063 17.4709,-41.765 10.7185,-10.6973 25.4776,-17.3351 41.6847,-17.3351zm179.229 61.441l-176.943 0 0 493.217 176.943 0 0 -493.217z"/>
    <path id="_445081272" class="fil1" d="M539.321 983.962c-16.5012,-3.77717 -32.9433,6.53859 -36.7205,23.0398 -3.77717,16.5024 6.53741,32.9445 23.0398,36.7217 29.6693,6.89292 103.263,79.4375 145.82,121.389 8.63741,8.51457 16.102,15.8717 21.5658,21.0768 12.2599,11.6634 31.6559,11.1803 43.3193,-1.07953 11.6646,-12.261 11.1815,-31.6559 -1.07953,-43.3205 -5.77087,-5.49685 -12.7595,-12.3862 -20.8453,-20.3575 -47.0705,-46.3985 -128.465,-126.634 -175.1,-137.47z"/>
    <path id="_445083144" class="fil1" d="M426.642 1031.92c-14.0504,-9.40985 -33.0709,-5.64804 -42.4807,8.40119 -9.40985,14.0492 -5.64804,33.0697 8.40119,42.4796 7.05591,4.71496 12.1736,7.9004 17.387,11.1413 13.4386,8.35985 27.554,17.1402 40.3111,28.552 21.7382,19.4599 43.5733,41.3209 64.8378,62.6126 23.876,23.9043 47.054,47.113 70.4764,67.2438 12.8563,11.0008 32.1992,9.49607 43.1989,-3.36024 11.0008,-12.8563 9.49607,-32.1992 -3.36024,-43.2 -21.6933,-18.6449 -43.9489,-40.9311 -66.8752,-63.8835 -21.4323,-21.4606 -43.441,-43.4953 -67.4764,-65.0115 -17.3658,-15.5351 -33.4229,-25.5236 -48.7122,-35.0327 -6.06851,-3.77481 -12.0154,-7.4752 -15.7075,-9.94253z"/>
    <path id="_445083000" class="fil1" d="M1435.14 1212.15c-51.75,-26.4331 -118.07,-37.3146 -182.066,-30.9189 -59.1248,5.90906 -115.494,26.5559 -155.219,63.2977l0 0.120473 -2.30197 2.1248 0.00354331 0.00354331c-16.3665,15.3508 -25.6618,24.0638 -65.4001,24.2646l0 0.00354331c-53.1071,3.29055 -100.126,-0.126378 -142.322,-3.19134 -87.8162,-6.3815 -151.493,-11.0067 -189.658,63.1926l-54.4796 -28.0807c56.7059,-110.245 137.304,-104.389 248.457,-96.3131 40.4729,2.93977 85.5698,6.21733 134.401,3.19134l1.8 0c14.2973,0.0177165 18.6461,-1.95354 22.8236,-5.54056 0.582284,-0.546851 2.09764,-1.94882 5.1567,-4.7752l0.0602363 0.0661418c50.1367,-46.3429 119.228,-72.1843 190.678,-79.3241 75.1347,-7.50945 153.764,5.65867 215.907,37.3996l-27.841 54.4796zm-381.463 -10.0122c1.94055,-1.81654 1.14803,-1.11142 -0.0791339,0l0.0791339 0zm73.467 335.331c-61.2249,8.3504 -169.173,20.315 -270.655,13.9571 -108.336,-6.78898 -210.143,-34.9465 -249.182,-110.319l-0.0496063 0.0259843 -1.57677 -3.03425c-6.75945,-12.9921 -11.4732,-22.05 -15.9449,-40.8402 -4.11851,-17.328 -33.6579,-47.1815 -71.8926,-79.6949 -62.0977,-52.8083 -144.275,-108.24 -188.159,-136.381 -0.129921,0.165354 -0.281103,0.337796 -0.458268,0.517323 -4.26733,4.33937 -8.03386,10.6039 -10.1705,18.0012l-0.0318898 -0.00944883c-1.0063,3.5315 -1.58622,7.56969 -1.58622,12.0555 0,71.7721 57.5056,141.817 109.077,204.638 8.77796,10.6913 17.3988,21.1925 26.7189,32.9563 4.66063,5.88898 5.55,7.05237 6.42284,8.19331 3.13583,4.10315 6.1063,7.98898 9.30001,11.7343l-0.00826772 0.00708662c240.229,278.223 434.218,216.123 680.549,137.262 88.8839,-28.4563 184.211,-58.9748 290.387,-77.8819l10.5602 60.4796c-102.985,18.339 -195.741,48.0355 -282.227,75.7241 -267.978,85.7906 -479.004,153.349 -745.703,-155.63l-0.120473 -0.120473c-4.55906,-5.34804 -7.91339,-9.7382 -11.4579,-14.374 -2.93977,-3.84449 -5.42481,-7.11969 -5.70355,-7.47166 -7.50237,-9.47009 -16.6595,-20.6244 -25.9984,-31.9984 -58.2685,-70.9772 -123.239,-150.115 -123.239,-243.518 0,-9.82087 1.55551,-19.5933 4.26024,-28.9654l0 -0.120473c5.07874,-17.5866 14.465,-32.9173 25.2886,-43.9217 13.2496,-13.4717 29.6221,-21.463 45.3945,-21.463 4.19292,0 8.59135,0.637796 13.1634,1.95827l7.79882 3.47953c41.4095,26.0894 135.654,88.6146 205.543,148.048 47.1898,40.1303 84.4949,80.5383 92.0516,112.336 2.71418,11.4 5.97993,17.6788 10.6642,26.6811l1.57677 3.03425 0 0.119291c26.6799,51.6083 109.115,71.6859 198.591,77.2914 96.3745,6.03662 199.873,-5.45788 258.657,-13.4764l8.15906 60.7205z"/>
    <path id="_445069440" class="fil1" d="M943.327 818.489l0 -115.051c-35.9126,-10.3134 -62.2595,-25.7847 -79.0442,-46.6016 -16.6902,-20.8146 -25.1303,-46.0382 -25.1303,-75.6686 0,-30.0059 9.47127,-55.2284 28.4114,-75.6686 19.0347,-20.4414 44.2583,-32.1626 75.7631,-35.3492l0 -27.1925 39.7559 0 0 27.1925c29.1626,3.56221 52.3229,13.4079 69.5753,29.817 17.1591,16.4091 28.1292,38.3504 32.9126,65.8229l-69.4808 9.09686c-4.22008,-21.6603 -15.1902,-36.2882 -33.0071,-43.9772l0 107.361c43.9772,11.9091 73.9819,27.3803 89.8288,46.3205 15.9402,18.9414 23.9103,43.2272 23.9103,72.9497 0,33.1004 -10.0323,61.043 -30.0059,83.7331 -20.0658,22.7858 -48.0071,36.6638 -83.7331,41.8205l0 51.3839 -39.7559 0 0 -50.0705c-31.6925,-3.84567 -57.4784,-15.6602 -77.2631,-35.4449 -19.7847,-19.6902 -32.3492,-47.6327 -37.8815,-83.7331l71.7319 -7.68898c2.90551,14.628 8.4378,27.287 16.5012,37.8827 7.97008,10.5945 16.9725,18.2847 26.9114,23.0658zm0 -288.423c-10.8768,3.6567 -19.4091,9.9378 -25.8792,18.6579 -6.37678,8.81575 -9.56457,18.5658 -9.56457,29.1626 0,9.65788 2.9067,18.7524 8.72127,27.0036 5.90552,8.34568 14.8146,15.0969 26.7225,20.2536l0 -95.0776zm39.7559 292.268c13.7847,-2.5311 24.9425,-8.90788 33.5693,-19.0347 8.62678,-10.2201 12.9402,-22.128 12.9402,-35.9126 0,-12.2835 -3.6567,-22.7847 -10.878,-31.6925 -7.22008,-8.90788 -19.128,-15.7524 -35.6315,-20.4414l0 107.081z"/>
   </g>
  </g>
 </g>
</svg>
